<?xml version="1.0" encoding="iso-8859-1"?>
<!-- Generator: Adobe Illustrator 19.0.0, SVG Export Plug-In . SVG Version: 6.00 Build 0)  -->
<svg version="1.1" id="Capa_1" xmlns="http://www.w3.org/2000/svg" xmlns:xlink="http://www.w3.org/1999/xlink" x="0px" y="0px"
	 viewBox="0 0 496 496" style="enable-background:new 0 0 496 496;" xml:space="preserve">
<g>
	<g>
		<g>
			<path d="M248,0c-74.992,0-136,61.008-136,136v272c0,35.288,28.712,64,64,64h9.08c3.568,13.776,16.048,24,30.92,24
				c6.8,0,13.344-2.192,18.768-6.176C241.112,493.832,248.448,496,256,496c17.784,0,32.712-11.744,37.904-27.816
				c8.72,2.48,17.784,3.816,26.96,3.816C355.672,472,384,443.672,384,408.856V136C384,61.008,322.992,0,248,0z M228.168,474.232
				C225.08,477.896,220.64,480,216,480c-8.824,0-16-7.176-16-16v-8h-8c-6.208,0-11.688-3.704-14.312-9.224
				c-1.376-8.296,0.432-16.952,5.408-24.088c5.96,8.64,15.144,14.68,25.64,16.608c2.488,13.408,11.624,24.488,23.904,29.616
				L228.168,474.232z M193.864,409.16l26.96-28.888l4.232,16.92c1.752,7.016,4.28,13.712,7.432,20.056
				C228.048,421.504,222.192,424,216,424C206.176,424,197.52,418.024,193.864,409.16z M225.136,438.912
				c5.76-1.352,11.144-3.992,15.792-7.688c4.768,6.56,10.344,12.584,16.712,17.896c1.176,0.976,2.416,1.848,3.632,2.768
				c-3.904,2.6-8.488,4.112-13.272,4.112C237.184,456,228.128,448.76,225.136,438.912z M256,480c-6,0-11.776-2.304-16.272-6.48
				l-3.896-3.616C239.696,471.152,243.728,472,248,472c10.32,0,20.184-4.024,27.6-11.096c1.12,0.576,2.216,1.2,3.352,1.728
				C276.048,472.632,266.92,480,256,480z M368,408.856C368,434.848,346.848,456,320.856,456c-19.32,0-38.136-6.816-52.976-19.176
				c-13.576-11.312-23.024-26.36-27.312-43.504l-6.744-26.984l39.816-42.648c19.576-20.984,30.36-48.336,30.36-77.032
				c0-30.96-12.624-59.968-34.168-80.92c16.632-15.984,35.424-29.424,56.088-39.752C337.072,120.416,344,109.192,344,96.72
				c0-17.808-14.288-32.328-32-32.712V64c0-17.648-14.352-32-32-32c-8.696,0-16.328,4.648-20.536,11.592
				c-11.056-4.432-24.176-2.184-33.12,6.752c-4.808,4.808-7.584,10.84-8.52,17.096c-4.848-2.08-10.48-3.44-17.264-3.44
				C182.608,64,168,78.608,168,96.56c0,6.456,1.888,12.696,5.472,18.064c8.496,12.744,20.112,23.312,33.584,30.568l29.984,16.152
				c31.44,16.92,50.96,49.616,50.96,85.312c0,24.624-9.256,48.104-26.064,66.112l-83.784,89.768l-7.24,9.584
				c-8.416,11.224-11.328,25.264-8.784,38.504l-0.28,0.096c0.168,0.472,0.4,0.896,0.584,1.352c0.152,0.696,0.256,1.4,0.44,2.088
				C142.768,448.448,128,429.912,128,408V136c0-66.168,53.832-120,120-120s120,53.832,120,120V408.856z M256,104
				c7.688,0,15.128,1.52,22.104,4.528l6.328-14.704C275.44,89.96,265.872,88,256,88c-2.92,0-5.8,0.24-8.656,0.584
				C254.288,83.128,262.896,80,272,80c20.024,0,36.512,14.848,39.4,34.08c-3.112-3.752-6.56-7.208-10.4-10.28l-10,12.488
				c2.656,2.128,5.08,4.488,7.288,7.032c-4.584,2.872-9.136,5.808-13.512,8.976C277.32,124.576,266.96,120,256,120
				c-12.664,0-24.544,6.096-32.04,16.12l-9.32-5.016c-1.608-0.864-3.104-1.904-4.64-2.88C220.4,113.192,237.52,104,256,104z
				 M197.392,118.32c-3.944-3.824-7.56-7.992-10.616-12.568C184.96,103.024,184,99.84,184,96.56c0-9.136,7.432-16.56,16.56-16.56
				c12.128,0,18.152,6.024,25.784,13.656l0.56,0.56C215.192,99.4,204.968,107.672,197.392,118.32z M237.656,61.656
				c5.704-5.704,14.984-5.704,20.688,0l3.392,3.392c-10.04,1.872-19.352,6.368-26.936,13.12
				C232.28,72.752,233.192,66.12,237.656,61.656z M272,64v-8c0-4.416,3.584-8,8-8c8.824,0,16,7.176,16,16v5.48
				C288.712,66.008,280.592,64,272,64z M311.112,80h0.168c9.216,0,16.72,7.504,16.72,16.72c0,2.904-0.816,5.632-2.16,8.064
				C323.144,95.256,318.008,86.744,311.112,80z M256,136c6.008,0,11.656,2.368,16.016,6.296c-5,4.152-9.832,8.504-14.504,13.064
				c-4.072-2.96-8.368-5.672-12.88-8.104l-6.248-3.368C242.888,138.984,249.224,136,256,136z"/>
			<rect x="152" y="160" width="16" height="16"/>
			<rect x="184" y="192" width="16" height="16"/>
			<rect x="240" y="224" width="16" height="16"/>
			<rect x="160" y="264" width="16" height="16"/>
			<rect x="208" y="296" width="16" height="16"/>
			<rect x="160" y="352" width="16" height="16"/>
			<rect x="304" y="160" width="16" height="16"/>
			<rect x="336" y="216" width="16" height="16"/>
			<rect x="312" y="280" width="16" height="16"/>
			<rect x="328" y="336" width="16" height="16"/>
			<rect x="256" y="368" width="16" height="16"/>
			<rect x="312" y="408" width="16" height="16"/>
		</g>
	</g>
</g>
<g>
</g>
<g>
</g>
<g>
</g>
<g>
</g>
<g>
</g>
<g>
</g>
<g>
</g>
<g>
</g>
<g>
</g>
<g>
</g>
<g>
</g>
<g>
</g>
<g>
</g>
<g>
</g>
<g>
</g>
</svg>
